<!DOCTYPE svg PUBLIC "-//W3C//DTD SVG 1.1//EN" "http://www.w3.org/Graphics/SVG/1.1/DTD/svg11.dtd">
<!-- Uploaded to: SVG Repo, www.svgrepo.com, Transformed by: SVG Repo Mixer Tools -->
<svg fill="#eb0000" version="1.1" id="Capa_1" xmlns="http://www.w3.org/2000/svg" xmlns:xlink="http://www.w3.org/1999/xlink" width="800px" height="800px" viewBox="0 0 571.995 571.995" xml:space="preserve" stroke="#eb0000">
<g id="SVGRepo_bgCarrier" stroke-width="0"/>
<g id="SVGRepo_tracerCarrier" stroke-linecap="round" stroke-linejoin="round"/>
<g id="SVGRepo_iconCarrier"> <g> <g> <path d="M60.282,114.171c-8.568-2.142-16.83-4.59-24.786-8.874c-1.224-0.612-2.448,1.224-1.224,1.836 c7.956,4.59,16.524,7.956,25.704,9.18C61.2,116.313,61.2,114.477,60.282,114.171z"/> <path d="M63.954,97.035c-7.344-3.06-14.688-5.508-22.032-8.874c-1.224-0.612-2.142,1.224-0.918,1.53 c7.038,3.672,14.688,7.344,22.338,9.18C64.872,99.177,65.178,97.341,63.954,97.035z"/> <path d="M62.424,87.549c-7.956-2.754-15.606-4.59-22.95-8.874c-1.224-0.612-2.448,1.224-1.224,1.836 c7.038,4.284,15.606,8.568,23.868,9.18C63.342,89.997,63.648,88.161,62.424,87.549z"/> <path d="M62.73,80.511c-7.65-4.284-15.606-7.956-23.256-11.628c-1.224-0.612-2.448,1.224-1.224,1.836 c7.65,3.978,15.3,8.262,23.256,11.628C62.73,83.265,63.954,81.429,62.73,80.511z"/> <path d="M63.648,72.861c-7.344-4.896-15.606-8.874-23.256-13.158c-1.53-0.918-2.754,1.224-1.224,2.142 c7.65,4.59,15.3,9.486,23.256,13.158C63.954,75.615,65.178,73.779,63.648,72.861z"/> <path d="M64.566,64.599c-6.732-3.366-13.464-6.732-19.89-10.404c-1.53-0.918-3.06,1.53-1.53,2.448 c6.426,3.978,13.158,7.65,20.502,10.404C64.872,67.659,65.79,65.211,64.566,64.599z"/> <path d="M570.996,485.961c-7.65-11.934-17.441-22.645-26.623-33.66c-4.283-5.201-8.873-10.404-13.463-15.605 c-3.367-3.672-9.486-8.262-13.158-12.852c0.307-0.918,0-1.836-0.307-2.754c-0.305-0.307-0.305-0.918-0.611-1.225 c-0.611-1.225-2.143-1.836-3.672-1.836c0-1.529-0.918-3.061-2.143-3.979c-6.426-3.979-13.463-0.611-20.502,0.611 c-8.568,1.531-17.441,2.449-26.01,3.674c-0.611-1.225-1.529-1.838-2.754-2.449C352.818,301.75,221.238,212.703,108.936,102.237 c9.486-10.098,14.382-22.032,7.956-33.66c-8.262-16.218-37.026-26.316-51.714-35.19C46.206,22.065,28.152,7.377,5.202,7.377 C2.448,7.377,0,9.825,0,12.579c0.306,36.108,3.978,71.298,20.502,103.734c4.284,8.568,10.098,18.054,19.89,20.808 c11.628,3.366,15.3-7.65,25.398-8.568c2.142-0.306,3.978-1.836,4.59-3.672c4.284-1.224,8.874-3.061,13.464-5.202 c111.384,108.63,228.275,216.954,349.451,314.569c-4.283,8.566-7.955,16.828-11.016,26.01c-2.754,7.955-7.65,17.748-4.59,26.01 c0.307,1.223,1.225,1.836,2.143,2.447c0.307,0.307,0.307,0.611,0.611,0.918c27.541,25.705,57.529,51.408,87.822,73.746 c5.201,3.979,10.404-2.447,9.18-7.65c0,0.307,0.307,0.613,0.307,0.918c0.918,1.836,3.979,1.836,4.896,0 c3.977-8.262,3.977-15.605,3.977-24.785c0.307-10.404,0.613-21.113,0.307-31.518c12.24,3.672,25.705,3.977,37.639-0.307 c3.059-0.918,3.977-3.672,3.977-6.119C571.607,492.693,573.139,489.326,570.996,485.961z M536.725,466.684 c2.141,2.754,4.283,5.201,6.426,7.955c-5.508,0-11.016,0.613-16.525,0.613c-7.037,0-14.381-0.307-21.42-0.918 c-2.754-2.756-5.508-5.51-8.262-7.957c5.814,0.307,11.629,0.611,17.443,0.918C521.73,467.602,529.379,468.824,536.725,466.684 L536.725,466.684z M527.238,455.055c1.223,1.531,2.447,3.061,3.672,4.59c-5.508-0.305-11.016,0.307-16.523,0.613 c-7.957,0.305-15.607,0.611-23.562,1.223c-2.449-1.836-5.203-4.283-8.568-6.426c6.119,0.307,12.547,0.611,18.666,0.918 C509.795,455.973,518.67,457.197,527.238,455.055z M464.201,427.516c8.568,1.836,17.137,2.447,26.01,1.529 c5.203-0.611,11.629-0.918,16.525-3.365c0.305,1.836,0.918,3.672,1.836,5.508c-5.203,0-10.711,0.918-15.912,1.529 c-7.344,0.918-14.994,1.836-22.338,2.754c-3.979,0.611-3.061,7.039,0.918,7.039c8.262-0.307,16.523-0.613,24.785-0.918 c6.121-0.307,12.24-0.307,18.055-2.449c2.143,2.449,4.283,4.896,6.119,7.039c-6.426-0.307-12.852,0.305-19.277,0.611 c-8.875,0.307-17.748,0.611-26.621,1.529c-5.203-3.672-10.1-7.344-13.465-9.18c0-0.305,0.307-0.305,0.307-0.611 c0.611-0.918,0.305-2.143-0.307-2.754c-0.611-0.613-0.918-1.225-1.529-1.836C461.447,432.41,463.283,430.27,464.201,427.516z M85.68,102.849c-5.508-2.448-11.628-3.366-17.442-5.202c-1.224-0.306-1.836,1.53-0.612,2.142c4.896,1.836,10.098,3.978,15.3,4.59 c-1.836,1.224-3.366,2.448-5.202,3.366c-1.53-0.306-2.754-0.306-4.284-0.612c-3.366-0.306-6.732-0.918-10.098-1.224 c-0.306,0-0.306,0-0.612,0.306c0.306-0.306,0.306-1.224-0.306-1.224c-8.262-3.366-16.524-6.426-24.786-10.404 c-0.918-0.612-1.836,0.918-0.918,1.53c8.262,3.978,16.524,7.956,25.092,10.404c0.306,0,0.306,0,0.612,0 c-0.306,0.612-0.306,1.53,0.612,1.836c3.672,0.612,7.344,0.918,11.322,1.53c-3.978,2.448-8.262,4.896-12.24,7.344 c-0.918,0-1.53,0-2.754-0.306c-1.53-0.306-3.06,1.836-4.59,2.754c-7.038-2.142-13.77-3.978-20.808-6.426 c-3.672-3.672-6.426-8.262-8.568-13.77c-0.612-1.224-0.918-2.142-1.224-3.366c3.366,2.448,6.732,4.896,10.71,6.426 c0.918,0.306,1.53-0.918,0.918-1.53c-3.06-2.754-6.426-4.59-9.792-6.732c-1.224-0.612-2.142-1.53-3.366-2.448 c-1.53-3.672-2.754-7.344-3.672-11.016c5.814,3.366,11.628,7.038,17.136,10.71c0.918,0.612,1.836-0.918,1.224-1.53 c-5.814-4.59-12.24-8.568-18.972-11.934c-0.918-2.448-1.224-5.202-2.142-7.65c6.426,4.284,12.852,8.874,19.89,11.934 c0.918,0.306,1.836-0.612,0.918-1.224c-6.732-5.202-14.382-9.18-21.726-13.77c-0.612-3.06-1.224-6.12-1.836-9.18 c6.12,5.202,12.852,9.792,19.89,13.77c1.224,0.612,2.142-1.224,0.918-1.836c-7.344-4.59-14.688-9.18-21.42-14.382 c-0.306-1.53-0.612-3.06-0.612-4.59c7.038,4.284,14.382,8.874,22.032,12.24c0.918,0.306,1.836-0.918,0.918-1.53 c-7.038-5.202-15.3-9.18-23.256-13.464c-0.306-2.448-0.612-5.202-0.918-7.65c7.038,5.814,14.688,11.628,22.95,15.3 c0.918,0.612,1.836-0.918,0.918-1.53c-7.65-5.202-15.606-9.792-22.95-15.606c-0.306-0.306-0.612-0.306-1.224,0 c-0.306-2.142-0.306-3.978-0.306-6.12c7.038,5.814,14.688,11.322,22.95,14.994c1.224,0.612,2.448-1.224,1.224-1.836 c-8.262-5.202-16.524-10.404-24.174-16.83c0-0.918,0-2.142,0-3.06c7.344,4.896,14.688,9.792,22.644,13.464 c1.224,0.612,2.448-1.224,1.224-1.836c-7.956-4.59-16.218-9.18-23.868-14.382c0-1.53,0-3.366,0-4.896 c0.612,0,0.918,0.306,1.224,0.306c7.956,4.896,16.218,10.404,25.092,13.77c0.918,0.306,1.53-0.612,1.53-1.53 c4.284,2.754,8.568,5.508,12.852,7.956c10.404,6.12,22.032,12.24,32.436,18.972c-3.978-0.918-7.956-1.836-11.934-2.142 c-1.53,0-1.836,1.53-1.224,2.448c-0.306,0-0.306,0-0.612-0.306c-0.612,0-1.224,0.306-1.53,0.918c0-0.306,0-0.306-0.306-0.612 c-8.874-6.732-19.278-11.934-28.764-17.442c-1.836-0.918-3.366,1.53-1.53,2.754c9.486,5.814,18.666,12.546,28.764,17.136 c0.918,0.306,1.53,0,1.836-0.306c0.306,0.306,0.306,0.306,0.612,0.612c11.628,2.754,21.726,7.65,32.436,12.24 c0.612,0.918,1.224,1.836,1.836,2.754c-1.53-0.612-3.06-1.224-4.59-1.836h-0.306c-9.792-3.978-19.584-7.65-29.376-11.628 c-1.836-0.612-2.448,2.142-0.918,2.754c12.24,4.896,24.174,10.098,36.414,14.688c0.306,1.53,0.306,2.754,0,4.284 c-0.306,0.918-0.918,2.142-1.53,3.06l0,0c-11.934-4.896-23.868-8.874-35.802-13.158c-1.53-0.612-2.448,1.836-0.612,2.448 c11.628,4.284,23.256,8.874,35.19,12.546c-0.612,0.918-1.53,1.53-2.448,2.448c-0.612-0.612-0.918-0.918-1.53-1.53 c-1.836-1.836-3.672-0.918-4.59,0.918c-1.224-0.612-2.448-0.918-3.978-1.224c-2.448-0.918-4.59-1.53-7.038-2.448 c-5.508-1.836-11.016-3.672-16.524-5.508c-1.53-0.612-2.448,2.142-0.612,2.448c6.426,2.142,12.546,4.284,18.666,6.732 c2.448,0.918,6.732,3.366,10.098,3.978c0.306,0.306,0.612,0.612,0.612,0.918c-0.612,0.612-1.53,1.224-2.142,1.836 c-8.874-2.754-18.36-4.284-27.54-6.12c-1.224-0.306-1.836,1.836-0.612,2.142c8.568,1.836,17.136,3.978,25.704,5.814 C88.434,101.013,86.904,101.931,85.68,102.849C85.986,102.849,85.986,102.849,85.68,102.849z M88.74,117.231 c5.202-3.06,10.404-6.426,14.994-10.404c104.04,117.504,239.598,202.571,348.84,315.181c-1.836,3.365-4.59,6.119-8.875,6.119 c-2.141,0-3.672,1.225-4.283,2.754C329.562,321.027,209.304,216.375,88.74,117.231z M429.012,483.207 c2.447-5.508,2.447-11.934,3.979-17.748c2.141-8.873,4.896-17.441,7.65-26.316c0.611,0,1.529-0.611,1.836-0.918 c2.447,0.918,5.201,0.613,7.955,0.307c0.307,3.061,1.225,5.201,3.367,7.344c-8.568,12.852-11.629,30.295-11.322,45.9 C437.887,488.408,433.602,485.654,429.012,483.207z M461.447,504.32c0,0.307,0.307,0.613,0.613,0.918 c-3.979-2.754-7.957-5.812-11.936-8.566c0.613-8.568,1.531-16.83,3.672-25.094c1.838-6.73,4.896-13.156,7.039-19.584 c2.143,1.531,4.283,3.061,6.119,4.592c-2.141,8.262-3.059,16.523-4.283,24.785C462.061,488.715,459.307,496.672,461.447,504.32z M474.912,515.031c-3.672-3.061-7.65-6.121-11.322-8.875c1.225,0.307,2.754,0,3.672-1.223c5.201-6.732,5.508-16.525,7.039-24.787 c1.223-5.508,2.447-10.709,3.365-16.217c0.611,0.305,0.918,0.918,1.529,1.223c2.143,1.836,3.979,3.672,6.121,5.814 c-4.896,7.039-5.814,16.523-7.344,24.787C476.748,502.18,475.83,508.605,474.912,515.031z M494.189,507.688 c-0.918,7.037-1.836,14.076-3.061,21.113c-3.059-2.754-6.426-5.814-9.791-8.568c1.529-7.955,3.061-15.912,5.201-23.867 c1.531-6.121,4.285-12.547,5.203-18.666c1.836,1.836,3.365,3.672,5.201,5.508C495.414,491.162,495.107,499.426,494.189,507.688z M516.223,553.588c-5.814-6.428-11.629-12.547-18.055-18.361c3.979-12.545,7.65-27.234,8.568-41.309 c2.141,2.447,4.283,4.895,6.732,7.344c-0.307,10.402,0,20.502,0.305,30.906c0.307,8.262,0.307,15.299,3.367,22.643 C516.834,554.506,516.527,553.893,516.223,553.588z M524.484,489.939c-2.143-0.613-3.979,0.305-4.896,1.529 c-2.447-3.365-4.896-6.426-7.65-9.486c12.24,2.449,26.01,3.979,36.721,0.307c0.305,0,0.305-0.307,0.611-0.307 c2.449,2.754,4.896,5.508,7.65,7.957C546.209,492.387,535.807,493,524.484,489.939z"/> <path d="M66.096,48.075c-8.874-4.896-18.054-9.486-26.622-15.3c-1.53-0.918-3.06,1.53-1.53,2.448 c8.568,5.814,17.136,11.322,26.622,15.3C66.402,51.441,67.932,48.993,66.096,48.075z"/> <path d="M85.068,80.205C84.762,80.205,84.762,80.511,85.068,80.205L85.068,80.205z"/> <path d="M103.734,82.959c-1.836-0.918-3.366-1.836-5.202-2.754c-0.306,0-0.306,0-0.612,0c-10.404-5.202-21.42-9.486-32.742-12.546 c-1.224-0.306-1.53,1.224-0.612,1.836c12.852,4.896,25.398,10.404,37.944,15.606l0,0l0,0h0.306 C104.04,85.407,104.652,83.571,103.734,82.959z"/> </g> </g> </g>
</svg>